<svg width="23" height="23" viewBox="0 0 23 23" fill="none" xmlns="http://www.w3.org/2000/svg">
<rect width="23" height="23" rx="11.5" fill="#61C956"/>
<path d="M16.1226 6.54325C14.9183 5.2189 13.2534 4.5 11.5531 4.5C7.94006 4.5 5.03543 7.64055 5.07087 11.4621C5.07087 12.6729 5.38968 13.846 5.921 14.9054L5 18.5L8.43599 17.5541C9.39237 18.1216 10.4551 18.3865 11.5177 18.3865C15.0954 18.3865 18 15.246 18 11.4243C18 9.57025 17.327 7.82975 16.1226 6.54325ZM11.5531 17.2135C10.5967 17.2135 9.64032 16.9486 8.82562 16.4189L8.61307 16.3054L6.55861 16.8729L7.08993 14.7162L6.94824 14.4892C5.38968 11.8027 6.1335 8.24595 8.68393 6.5811C11.2343 4.91621 14.5286 5.7108 16.0872 8.43515C17.6458 11.1595 16.9019 14.6784 14.3515 16.3433C13.5368 16.9108 12.5449 17.2135 11.5531 17.2135ZM14.6703 13.0135L14.2807 12.8243C14.2807 12.8243 13.7139 12.5595 13.3597 12.3702C13.3242 12.3702 13.2888 12.3324 13.2534 12.3324C13.1471 12.3324 13.0763 12.3703 13.0054 12.4081C13.0054 12.4081 12.9701 12.4459 12.4741 13.0513C12.4387 13.127 12.3679 13.1649 12.297 13.1649H12.2616C12.2262 13.1649 12.1553 13.1271 12.1199 13.0892L11.9428 13.0135C11.5531 12.8243 11.1989 12.5973 10.9156 12.2946C10.8447 12.2189 10.7384 12.1432 10.6676 12.0675C10.4196 11.8027 10.1717 11.5 9.99456 11.1594L9.95913 11.0838C9.92369 11.046 9.92369 11.0081 9.88831 10.9325C9.88831 10.8568 9.88831 10.7811 9.92369 10.7432C9.92369 10.7432 10.0654 10.554 10.1717 10.4405C10.2425 10.3649 10.2779 10.2514 10.3488 10.1757C10.4196 10.0622 10.4551 9.9108 10.4196 9.7973C10.3842 9.6081 9.95913 8.5865 9.85287 8.35945C9.782 8.24595 9.71118 8.2081 9.60493 8.17025H9.49863C9.42781 8.17025 9.32155 8.17025 9.21525 8.17025C9.14443 8.17025 9.07356 8.2081 9.00274 8.2081L8.96731 8.24595C8.89644 8.2838 8.82562 8.35945 8.75475 8.3973C8.68393 8.47295 8.6485 8.54865 8.57768 8.6243C8.32969 8.96485 8.188 9.3811 8.188 9.7973C8.188 10.1 8.25887 10.4027 8.36512 10.6676L8.40056 10.7811C8.71937 11.5 9.14443 12.1432 9.71118 12.7108L9.85287 12.8622C9.95913 12.9757 10.0654 13.0514 10.1362 13.1649C10.8801 13.846 11.7302 14.3379 12.6866 14.6027C12.7929 14.6406 12.9346 14.6405 13.0409 14.6784C13.1471 14.6784 13.2888 14.6784 13.3951 14.6784C13.5722 14.6784 13.7847 14.6027 13.9264 14.5271C14.0327 14.4514 14.1036 14.4514 14.1744 14.3757L14.2452 14.3C14.3161 14.2243 14.3869 14.1865 14.4578 14.1108C14.5286 14.0351 14.5994 13.9594 14.6349 13.8838C14.7057 13.7324 14.7411 13.5433 14.7766 13.354C14.7766 13.2784 14.7766 13.1649 14.7766 13.0892C14.7766 13.0892 14.7411 13.0514 14.6703 13.0135Z" fill="white"/>
</svg>
